<?xml version="1.0" encoding="utf-8"?>
<!-- Generator: Adobe Illustrator 23.0.4, SVG Export Plug-In . SVG Version: 6.00 Build 0)  -->
<svg version="1.1" id="Layer_1" xmlns="http://www.w3.org/2000/svg" xmlns:xlink="http://www.w3.org/1999/xlink" x="0px" y="0px"
	 viewBox="0 0 250 250" style="enable-background:new 0 0 250 250;" xml:space="preserve">
<style type="text/css">
	.st0{fill:#FFE36A;}
	.st1{display:none;}
	.st2{display:inline;fill:#FFE36A;}
</style>
<g id="d10">
	<path class="st0" d="M125.3,138.1c-1.4-0.4-2.8-0.6-4-1.1c-17.2-7-34.3-14-51.5-21c-3.5-1.4-4.4-3-2.5-6.6
		C85.7,73.8,104,38.2,122.4,2.7c0.6-1.2,1.1-2.9,2.8-2.7c1.7,0.3,2.1,2.1,2.8,3.5c8.4,16.2,16.6,32.4,25,48.5
		c9.7,18.8,19.4,37.6,29.2,56.3c2.2,4.2,1.8,6.2-2.9,8c-16.3,6.4-32.4,13.2-48.6,19.8C129,136.9,127.1,137.4,125.3,138.1z"/>
	<path class="st0" d="M118.9,199.7c0,15.3,0,30.5,0,45.8c0,1.5,0.7,3.5-0.9,4.3c-1.7,0.8-2.7-1.2-3.8-2.2
		c-14.9-14-29.8-28-44.7-42.1C48.1,185.3,26.7,165,5.4,144.6c-5.2-5-5.1-5.4,2-7.4c14.8-4.3,29.7-8.5,44.5-12.8
		c3-0.9,5.7-0.8,8.6,0.4c17.6,7.3,35.2,14.6,53,21.6c4.3,1.7,5.6,4.1,5.6,8.6C118.7,169.9,118.9,184.8,118.9,199.7
		C118.9,199.7,118.9,199.7,118.9,199.7z"/>
	<path class="st0" d="M131.1,199.4c0-15.1,0.1-30.2-0.1-45.3c0-3.8,1.2-5.9,4.9-7.4c17.7-7,35.4-14.3,53-21.6
		c3.2-1.3,6.1-1.5,9.5-0.4c15.1,4.5,30.4,8.6,45.5,13c5.4,1.6,5.5,2.2,1.4,6.1c-36.4,34.7-72.9,69.3-109.4,103.9
		c-1.1,1-2.2,2.8-3.8,2.2c-1.8-0.7-1-2.7-1-4.2C131.1,230.2,131.1,214.8,131.1,199.4C131.1,199.4,131.1,199.4,131.1,199.4z"/>
	<path class="st0" d="M242.2,123.9c-7.6-0.5-13-3-18.6-4.4c-7.6-1.9-15-4.3-22.5-6.4c-2.5-0.7-4.3-1.9-5.5-4.2
		c-13.8-26.8-27.6-53.6-41.5-80.4c-0.2-0.4-0.3-0.9,0.3-2C183.3,58.6,212.3,90.7,242.2,123.9z"/>
	<path class="st0" d="M95.9,26.1c0.6,2.5-0.9,3.8-1.6,5.3C81.2,56.8,68,82.2,54.9,107.6c-1.5,3-3.5,4.8-6.8,5.7
		c-13,3.5-25.9,7.3-38.9,11c-0.3-0.4-0.6-0.8-0.9-1.2C37.4,90.9,66.5,58.7,95.9,26.1z"/>
</g>
<g id="d20" class="st1">
	<path class="st2" d="M60.9,88c43.3,0,85.2,0,128.3,0c-21.5,37.8-42.6,74.7-64.1,112.6C103.5,162.6,82.4,125.7,60.9,88z"/>
	<path class="st2" d="M52,95c21,36.9,41.3,72.5,62.3,109.3c-33.6-5.8-65.7-11.4-98.8-17.1C27.6,156.6,39.5,126.6,52,95z"/>
	<path class="st2" d="M135.9,204.3c21-36.9,41.3-72.5,62.3-109.3c12.4,31.2,24.2,61.2,36.5,92.2
		C201.9,192.9,169.5,198.5,135.9,204.3z"/>
	<path class="st2" d="M63.4,75.9c20.9-25.7,41-50.5,61.7-75.9c20.6,25.4,40.9,50.3,61.7,75.9C145.5,75.9,105,75.9,63.4,75.9z"/>
	<path class="st2" d="M13.6,159c0-30.7,0-60.9,0-92c2.4,1.3,4.1,2.2,5.9,3.2c7.1,4.1,14.3,8.1,21.2,12.4c1.3,0.8,2.7,3.5,2.2,4.6
		c-9.1,23.5-18.5,47-27.8,70.5C14.9,158,14.4,158.3,13.6,159z"/>
	<path class="st2" d="M99.8,13.3C87.6,28.2,75.5,43.2,63.3,58.1c-3.7,4.6-7.3,9.3-11.2,13.8c-0.9,1-3.3,2.2-4.1,1.7
		C38.6,68.4,29.4,62.9,19.1,57c27.2-15.3,53.5-30,79.7-44.7C99.1,12.6,99.5,12.9,99.8,13.3z"/>
	<path class="st2" d="M231.1,57c-10,5.8-19,11.1-28.1,16.2c-1,0.6-3.6,0.2-4.3-0.6c-15.9-19.4-31.7-38.9-47.5-58.4
		c-0.3-0.3-0.2-0.9-0.6-2.3C177.6,27,203.9,41.8,231.1,57z"/>
	<path class="st2" d="M236.4,66.9c0,31.4,0,61.4,0,91.5c-0.3,0.1-0.6,0.2-0.9,0.3c-1.9-4.9-3.9-9.8-5.8-14.7
		c-7.3-18.3-14.4-36.6-21.8-54.8c-1.5-3.6-1-5.4,2.6-7.4C219,77.3,227.3,72.2,236.4,66.9z"/>
	<path class="st2" d="M130.6,250c0-11.2-0.1-20.9,0.1-30.7c0-1,1.5-2.8,2.6-3c25.1-4.5,50.2-8.8,75.3-13.2c0.2,0.4,0.4,0.8,0.6,1.3
		C183.4,219.4,157.6,234.3,130.6,250z"/>
	<path class="st2" d="M41.2,203.1c25.8,4.5,51.6,8.9,77.8,13.4c0,10.9,0,21.5,0,33.1c-26.4-15.3-52.2-30.3-78.1-45.2
		C41,204,41.1,203.6,41.2,203.1z"/>
</g>
<g id="d8" class="st1">
	<path class="st2" d="M119.5,179.9c-40.3-19-80-37.7-119.4-56.3c40-39.9,79.7-79.6,119.4-119.2C119.5,62.1,119.5,120.5,119.5,179.9z
		"/>
	<path class="st2" d="M249.9,123.9c-38.7,18.2-78.3,36.9-118.7,56c0-59.1,0-117.5,0-175C170.5,44.3,210.1,84,249.9,123.9z"/>
	<path class="st2" d="M119.7,245.6c-33.8-33.8-67.1-67.1-101.3-101.3c3,1.3,5.4,2.3,7.6,3.4c29.8,14,59.5,28.2,89.4,42.1
		c3.6,1.7,5,3.5,4.9,7.5c-0.2,14-0.1,28.1-0.1,42.2C120.1,241.4,119.8,243.5,119.7,245.6z"/>
	<path class="st2" d="M131,244.7c-0.1-0.8-0.4-2.4-0.4-4c0-14.7,0-29.4-0.1-44.1c0-3,0.7-5,3.7-6.3c31.9-14.9,63.8-30,95.7-45
		c0.5-0.3,1.2-0.3,1.3-0.3C198,178.1,164.5,211.4,131,244.7z"/>
</g>
<g id="d4" class="st1">
	<path class="st2" d="M250,157.2c-39.8,30.9-79,61.3-119,92.4c0-83.1,0-165.3,0-249.1C171.1,53.3,210.4,105,250,157.2z"/>
	<path class="st2" d="M118.8,249.5c-39.8-31-79-61.4-118.8-92.3c39.5-52,78.8-103.8,118.8-156.6C118.8,84.1,118.8,166.2,118.8,249.5
		z"/>
</g>
<g id="d12" class="st1">
	<path class="st2" d="M192.4,159.8c-11.4-7-22.8-14-34.2-21c-8.1-5-16.3-9.7-24.2-15c-1.7-1.1-3.4-3.9-3.4-5.9
		c-0.2-22.2-0.1-44.4-0.2-66.6c0-3.4,1.2-4.7,4.4-5.4c22.2-5.3,44.4-10.7,66.6-16.2c3.2-0.8,4.8,0.1,6.4,2.9
		c12.5,21.3,25.1,42.6,37.8,63.8c1.6,2.6,2.5,4.6-0.2,7.5c-17.1,17.9-33.9,36-50.8,54.1C194,158.6,193.3,159,192.4,159.8z"/>
	<path class="st2" d="M119.3,84.9c0,11,0.2,22-0.1,33c-0.1,2-1.5,4.9-3.2,5.9c-18.2,11.4-36.7,22.5-54.9,33.9
		c-2.9,1.8-4.5,1.5-6.7-0.9c-16.4-17.6-32.8-35.2-49.4-52.6c-2.4-2.5-2.6-4.4-0.8-7.4C17,75.4,29.8,53.8,42.4,32.2
		c1.6-2.7,3.2-3.2,6.2-2.5c21.8,5.4,43.7,10.8,65.6,15.9c4.1,0.9,5.4,2.6,5.2,6.8C119.1,63.2,119.3,74.1,119.3,84.9z"/>
	<path class="st2" d="M124.8,245.8c-11.5,0-23-0.2-34.6,0.1c-3.6,0.1-4.9-1.2-5.9-4.5c-6.6-22.6-13.3-45.1-20.2-67.6
		c-0.9-2.9-0.6-4.5,2.2-6.1c18.7-11.3,37.2-22.8,56-34.1c1.4-0.9,4.3-0.7,5.8,0.2c18.7,11.2,37.4,22.6,55.9,34.2
		c1.3,0.8,2.4,3.7,2,5.2c-6.7,23.1-13.7,46-20.5,69.1c-1,3.3-2.8,3.7-5.6,3.6C148.2,245.8,136.5,245.8,124.8,245.8z"/>
	<path class="st2" d="M71.6,239c-10.4-6.2-19.7-11.6-28.9-17.3c-1.2-0.7-2-2.3-2.7-3.6c-12.7-22-25.3-44-38-66
		c-0.6-1-1.5-2.1-1.5-3.2c-0.1-10.4-0.1-20.8-0.1-32.4c2,1.8,3.1,2.7,4.1,3.8C19.1,135.7,33.6,151,48,166.6c2.1,2.3,3.8,5.2,4.7,8.2
		c6,19.6,11.8,39.2,17.6,58.8C70.7,234.8,70.9,236.1,71.6,239z"/>
	<path class="st2" d="M249.5,116.7c0,11.2,0.1,21.5-0.1,31.8c0,1.4-1,2.8-1.7,4.1c-12.4,21.6-24.7,43.2-37.3,64.6
		c-1.5,2.5-3.8,4.8-6.2,6.3c-8.1,5.1-16.4,9.8-26,15.5c2.3-7.6,4-13.7,5.8-19.8c4.5-15.1,8.9-30.1,13.5-45.2c0.6-2,1.5-4.3,2.9-5.8
		c15.6-16.7,31.2-33.3,46.9-50C247.7,118,248.1,117.7,249.5,116.7z"/>
	<path class="st2" d="M192.1,20.4c-8.5,2.1-15.5,3.8-22.5,5.5c-13.8,3.4-27.6,6.7-41.4,10c-1.6,0.4-3.4,0.8-5,0.4
		c-20.9-5-41.8-10.1-62.6-15.3c-0.3-0.1-0.5-0.4-1.4-1.3c3.9-2,7.7-3.6,11-5.9c11.7-7.8,24.4-10.5,38.5-9.7
		c15.9,0.9,31.9,0.1,47.8,0.3c3.2,0,6.7,1,9.6,2.4C174.4,11,182.5,15.4,192.1,20.4z"/>
</g>
<g id="d6" class="st1">
	<path class="st2" d="M229,62.1c-8.2,4.8-15.8,9.2-23.5,13.6c-25.9,14.9-51.8,29.7-77.8,44.4c-1.7,0.9-4.7,1-6.3,0.1
		c-33.2-18.9-66.4-37.9-99.5-57c-0.4-0.2-0.7-0.6-1.6-1.3c1.5-1,2.8-2,4.2-2.8c31.9-18.9,63.9-37.8,95.8-56.9c2.9-1.7,5-2,8.1-0.1
		c31.9,19,63.9,37.9,95.8,56.8C225.7,59.8,227,60.8,229,62.1z"/>
	<path class="st2" d="M118.9,249.5c-11-6.3-21.4-12.2-31.8-18.2c-22.9-13.1-45.7-26.3-68.7-39.4c-2.6-1.5-3.9-3.1-3.9-6.2
		c0.1-36.5,0-73,0.1-109.6c0-1.2,0.2-2.4,0.4-4.2c1.5,0.6,2.6,0.9,3.6,1.5c32.5,18.6,65,37.2,97.4,56c1.5,0.9,3.2,3.3,3.2,5
		c0.1,37.5,0.1,74.9,0,112.4C119.2,247.4,119.1,248,118.9,249.5z"/>
	<path class="st2" d="M234.1,71.5c0.1,2.4,0.3,4,0.3,5.5c0,36.1,0,72.1,0.1,108.2c0,3-0.8,4.9-3.5,6.4
		c-32.1,18.3-64.2,36.8-96.3,55.2c-1.3,0.8-2.7,1.3-4.6,2.3c-0.1-2.1-0.2-3.6-0.2-5.1c0-35.9,0-71.8-0.1-107.7
		c0-3.8,1.1-5.9,4.5-7.8c31.9-18.1,63.6-36.4,95.4-54.7C230.8,73.1,232.1,72.5,234.1,71.5z"/>
</g>
</svg>
