<?xml version="1.0" encoding="utf-8"?>
<!-- Generator: Adobe Illustrator 23.0.4, SVG Export Plug-In . SVG Version: 6.00 Build 0)  -->
<svg version="1.1" id="Layer_1" xmlns="http://www.w3.org/2000/svg" xmlns:xlink="http://www.w3.org/1999/xlink" x="0px" y="0px"
	 viewBox="0 0 250 250" style="enable-background:new 0 0 250 250;" xml:space="preserve">
<style type="text/css">
	.st0{display:none;}
	.st1{display:inline;fill:#FFE36A;}
	.st2{fill:#FFE36A;}
</style>
<g id="d20" class="st0">
	<path class="st1" d="M-280.2-338.3c171.7,0,338,0,509.1,0C143.5-188.5,59.9-41.8-25.6,108.5C-111.4-42-195-188.7-280.2-338.3z"/>
	<path class="st1" d="M-315.7-310.2c83.4,146.4,163.9,287.6,247.2,433.8c-133.4-23-260.9-45-392-67.7
		C-412.4-65.8-365.3-184.9-315.7-310.2z"/>
	<path class="st1" d="M17.2,123.5c83.3-146.3,163.9-287.6,247.1-433.7c49,123.8,96.2,242.8,144.9,365.8
		C279.1,78.2,150.8,100.4,17.2,123.5z"/>
	<path class="st1" d="M-270.6-386c82.8-101.9,162.9-200.4,245-301.4c81.9,100.8,162.4,199.7,245,301.4C55.4-386-105.4-386-270.6-386
		z"/>
	<path class="st1" d="M-468.2-56.4c0-121.9,0-241.7,0-365.3c9.4,5.1,16.4,8.8,23.3,12.8c28.2,16.3,56.6,32.1,84.1,49.3
		c5,3.1,10.6,13.7,8.9,18.1c-36.1,93.5-73.3,186.5-110.3,279.6C-462.9-60.2-465-59.2-468.2-56.4z"/>
	<path class="st1" d="M-126.1-634.7c-48.2,59.3-96.5,118.6-144.7,177.9c-14.8,18.2-29,36.9-44.4,54.6c-3.6,4.1-13,8.7-16.3,6.9
		c-37.3-20.5-73.9-42.3-114.6-66c107.9-60.6,212.1-119,316.3-177.5C-128.6-637.5-127.3-636.1-126.1-634.7z"/>
	<path class="st1" d="M394.9-461.3c-39.8,23.1-75.4,44.2-111.5,64.2c-4.1,2.3-14.2,0.9-17-2.5c-63.2-76.9-125.8-154.3-188.5-231.7
		c-1-1.3-1-3.5-2.4-9.3C182.8-580.2,287.2-521.7,394.9-461.3z"/>
	<path class="st1" d="M416.2-421.8c0,124.4,0,243.9,0,363.3c-1.2,0.4-2.5,0.8-3.7,1.1c-7.7-19.4-15.3-38.8-23-58.2
		c-28.8-72.6-57.3-145.2-86.7-217.6c-5.8-14.2-4.1-21.6,10.2-29.2C347-380.5,379.8-400.7,416.2-421.8z"/>
	<path class="st1" d="M-3.9,304.7c0-44.5-0.3-83.1,0.5-121.6c0.1-4.2,6.1-11.1,10.3-11.8c99.6-17.9,199.3-35.1,299-52.4
		c0.7,1.7,1.5,3.3,2.2,5C205.8,183.2,103.5,242.5-3.9,304.7z"/>
	<path class="st1" d="M-358.6,118.7c102.5,17.7,205,35.3,308.7,53.2c0,43.1,0,85.5,0,131.4c-104.7-60.7-207.3-120.1-309.8-179.4
		C-359.3,122.2-358.9,120.5-358.6,118.7z"/>
</g>
<g id="d8">
	<path class="st2" d="M119.5,179.9c-40.3-19-80-37.7-119.4-56.3c40-39.9,79.7-79.6,119.4-119.2C119.5,62.1,119.5,120.5,119.5,179.9z
		"/>
	<path class="st2" d="M249.9,123.9c-38.7,18.2-78.3,36.9-118.7,56c0-59.1,0-117.5,0-175C170.5,44.3,210.1,84,249.9,123.9z"/>
	<path class="st2" d="M119.7,245.6c-33.8-33.8-67.1-67.1-101.3-101.3c3,1.3,5.4,2.3,7.6,3.4c29.8,14,59.5,28.2,89.4,42.1
		c3.6,1.7,5,3.5,4.9,7.5c-0.2,14-0.1,28.1-0.1,42.2C120.1,241.4,119.8,243.5,119.7,245.6z"/>
	<path class="st2" d="M131,244.7c-0.1-0.8-0.4-2.4-0.4-4c0-14.7,0-29.4-0.1-44.1c0-3,0.7-5,3.7-6.3c31.9-14.9,63.8-30,95.7-45
		c0.5-0.3,1.2-0.3,1.3-0.3C198,178.1,164.5,211.4,131,244.7z"/>
</g>
<g id="d4" class="st0">
	<path class="st1" d="M250,157.2c-39.8,30.9-79,61.3-119,92.4c0-83.1,0-165.3,0-249.1C171.1,53.3,210.4,105,250,157.2z"/>
	<path class="st1" d="M118.8,249.5c-39.8-31-79-61.4-118.8-92.3c39.5-52,78.8-103.8,118.8-156.6C118.8,84.1,118.8,166.2,118.8,249.5
		z"/>
</g>
<g id="d12" class="st0">
	<path class="st1" d="M192.4,159.8c-11.4-7-22.8-14-34.2-21c-8.1-5-16.3-9.7-24.2-15c-1.7-1.1-3.4-3.9-3.4-5.9
		c-0.2-22.2-0.1-44.4-0.2-66.6c0-3.4,1.2-4.7,4.4-5.4c22.2-5.3,44.4-10.7,66.6-16.2c3.2-0.8,4.8,0.1,6.4,2.9
		c12.5,21.3,25.1,42.6,37.8,63.8c1.6,2.6,2.5,4.6-0.2,7.5c-17.1,17.9-33.9,36-50.8,54.1C194,158.6,193.3,159,192.4,159.8z"/>
	<path class="st1" d="M119.3,84.9c0,11,0.2,22-0.1,33c-0.1,2-1.5,4.9-3.2,5.9c-18.2,11.4-36.7,22.5-54.9,33.9
		c-2.9,1.8-4.5,1.5-6.7-0.9c-16.4-17.6-32.8-35.2-49.4-52.6c-2.4-2.5-2.6-4.4-0.8-7.4C17,75.4,29.8,53.8,42.4,32.2
		c1.6-2.7,3.2-3.2,6.2-2.5c21.8,5.4,43.7,10.8,65.6,15.9c4.1,0.9,5.4,2.6,5.2,6.8C119.1,63.2,119.3,74.1,119.3,84.9z"/>
	<path class="st1" d="M124.8,245.8c-11.5,0-23-0.2-34.6,0.1c-3.6,0.1-4.9-1.2-5.9-4.5c-6.6-22.6-13.3-45.1-20.2-67.6
		c-0.9-2.9-0.6-4.5,2.2-6.1c18.7-11.3,37.2-22.8,56-34.1c1.4-0.9,4.3-0.7,5.8,0.2c18.7,11.2,37.4,22.6,55.9,34.2
		c1.3,0.8,2.4,3.7,2,5.2c-6.7,23.1-13.7,46-20.5,69.1c-1,3.3-2.8,3.7-5.6,3.6C148.2,245.8,136.5,245.8,124.8,245.8z"/>
	<path class="st1" d="M71.6,239c-10.4-6.2-19.7-11.6-28.9-17.3c-1.2-0.7-2-2.3-2.7-3.6c-12.7-22-25.3-44-38-66
		c-0.6-1-1.5-2.1-1.5-3.2c-0.1-10.4-0.1-20.8-0.1-32.4c2,1.8,3.1,2.7,4.1,3.8C19.1,135.7,33.6,151,48,166.6c2.1,2.3,3.8,5.2,4.7,8.2
		c6,19.6,11.8,39.2,17.6,58.8C70.7,234.8,70.9,236.1,71.6,239z"/>
	<path class="st1" d="M249.5,116.7c0,11.2,0.1,21.5-0.1,31.8c0,1.4-1,2.8-1.7,4.1c-12.4,21.6-24.7,43.2-37.3,64.6
		c-1.5,2.5-3.8,4.8-6.2,6.3c-8.1,5.1-16.4,9.8-26,15.5c2.3-7.6,4-13.7,5.8-19.8c4.5-15.1,8.9-30.1,13.5-45.2c0.6-2,1.5-4.3,2.9-5.8
		c15.6-16.7,31.2-33.3,46.9-50C247.7,118,248.1,117.7,249.5,116.7z"/>
	<path class="st1" d="M192.1,20.4c-8.5,2.1-15.5,3.8-22.5,5.5c-13.8,3.4-27.6,6.7-41.4,10c-1.6,0.4-3.4,0.8-5,0.4
		c-20.9-5-41.8-10.1-62.6-15.3c-0.3-0.1-0.5-0.4-1.4-1.3c3.9-2,7.7-3.6,11-5.9c11.7-7.8,24.4-10.5,38.5-9.7
		c15.9,0.9,31.9,0.1,47.8,0.3c3.2,0,6.7,1,9.6,2.4C174.4,11,182.5,15.4,192.1,20.4z"/>
</g>
<g id="d6" class="st0">
	<path class="st1" d="M229,62.1c-8.2,4.8-15.8,9.2-23.5,13.6c-25.9,14.9-51.8,29.7-77.8,44.4c-1.7,0.9-4.7,1-6.3,0.1
		c-33.2-18.9-66.4-37.9-99.5-57c-0.4-0.2-0.7-0.6-1.6-1.3c1.5-1,2.8-2,4.2-2.8c31.9-18.9,63.9-37.8,95.8-56.9c2.9-1.7,5-2,8.1-0.1
		c31.9,19,63.9,37.9,95.8,56.8C225.7,59.8,227,60.8,229,62.1z"/>
	<path class="st1" d="M118.9,249.5c-11-6.3-21.4-12.2-31.8-18.2c-22.9-13.1-45.7-26.3-68.7-39.4c-2.6-1.5-3.9-3.1-3.9-6.2
		c0.1-36.5,0-73,0.1-109.6c0-1.2,0.2-2.4,0.4-4.2c1.5,0.6,2.6,0.9,3.6,1.5c32.5,18.6,65,37.2,97.4,56c1.5,0.9,3.2,3.3,3.2,5
		c0.1,37.5,0.1,74.9,0,112.4C119.2,247.4,119.1,248,118.9,249.5z"/>
	<path class="st1" d="M234.1,71.5c0.1,2.4,0.3,4,0.3,5.5c0,36.1,0,72.1,0.1,108.2c0,3-0.8,4.9-3.5,6.4
		c-32.1,18.3-64.2,36.8-96.3,55.2c-1.3,0.8-2.7,1.3-4.6,2.3c-0.1-2.1-0.2-3.6-0.2-5.1c0-35.9,0-71.8-0.1-107.7
		c0-3.8,1.1-5.9,4.5-7.8c31.9-18.1,63.6-36.4,95.4-54.7C230.8,73.1,232.1,72.5,234.1,71.5z"/>
</g>
</svg>
