<?xml version="1.0" encoding="utf-8"?>
<!-- Generator: Adobe Illustrator 22.0.1, SVG Export Plug-In . SVG Version: 6.00 Build 0)  -->
<svg version="1.1" xmlns="http://www.w3.org/2000/svg" xmlns:xlink="http://www.w3.org/1999/xlink" x="0px" y="0px"
	 viewBox="0 0 200 200" style="enable-background:new 0 0 200 200;" xml:space="preserve">
<style type="text/css">
	.st0{clip-path:url(#SVGID_2_);fill:#FFE36A;}
	.st1{fill:#FFE36A;}
	.st2{fill:none;stroke:#FFE36A;stroke-width:3.11;stroke-miterlimit:10;}
	.st3{display:none;}
	.st4{display:inline;fill:#FFE36A;}
</style>
<g id="InPerson">
	<g id="Layer_1">
		<g>
			<g>
				<defs>
					<polygon id="SVGID_1_" points="-1,38.4 52.9,59.1 142.1,59.1 197,32.2 198,103.7 142.1,125.5 50.5,124.6 1,99 					"/>
				</defs>
				<clipPath id="SVGID_2_">
					<use xlink:href="#SVGID_1_"  style="overflow:visible;"/>
				</clipPath>
				<path class="st0" d="M97.6,160.1c-12.8,0-25.6,0-38.4,0c-4.9,0-9.7-0.4-14.5-1.6c-10.3-2.5-15.5-8.7-16.2-19.4
					C26.9,115.3,44,94.2,67.6,90.8c1.8-0.3,2.7,0,3.1,2c0.5,2.5,2.2,4.5,4.2,6.1c5.1,4.1,11.2,5.8,17.5,6.4
					c6.6,0.6,13.1,0.3,19.5-1.9c3.4-1.2,6.6-2.7,9.4-5.2c1.7-1.5,3.2-3.3,3.5-5.6c0.3-1.9,1.2-2.1,2.8-1.9c6.9,1,13.3,3.3,19,7.3
					c14,9.7,20.8,23.2,20.4,40.2c0,2.2-0.4,4.3-1,6.4c-1.9,7.2-6.7,11.4-13.7,13.4c-5.3,1.5-10.8,2-16.3,2
					C123.2,160.1,110.4,160.1,97.6,160.1z"/>
			</g>
			<path class="st1" d="M97.1,6c20.2,0,36.5,14.7,38.5,34.1c1,9.2-1.2,17.8-4.6,26.1c-3.7,9.1-8.8,17.3-16.3,23.7
				c-10.9,9.3-23,9.4-34.1,0.1c-7.9-6.7-13.1-15.3-16.9-24.8c-2.4-6-4-12.2-4.4-18.7C58.3,26.8,72.1,9.7,91.3,6.5
				C93.4,6.1,95.6,6,97.1,6z M99.2,90.5c4,0.1,8.6-2.2,12.8-5.7c8.3-7.1,13.3-16.3,16.4-26.6c1.1-3.6,2-7.2,1.4-11.2
				c-1.4-8.4-4.9-10.9-13.3-9.6c-9.4,1.5-18.9,2.1-28.3-0.1c-5.3-1.2-10.1-3.3-12.8-8.4c-0.7-1.3-1.3-0.5-1.8,0.1
				c-2.3,2.7-4.3,5.6-5.5,8.9c-1.9,4.8-3.6,9.7-2.5,15c2.4,11,7,20.8,14.7,29C84.9,86.8,90.4,90.4,99.2,90.5z"/>
		</g>
	</g>
	<g id="Layer_2">
		<path class="st2" d="M53.9,124.4v67.1c0.1,0.1,0.2,0.2,0.3,0.3h88.6c0.1-0.1,0.2-0.2,0.3-0.3v-67.1H53.9z"/>
		<path class="st2" d="M143.1,124.4v66.9c0.3,0,0.5,0,0.7,0.1l53.7-27.7v-60.1L143.1,124.4z"/>
		<path class="st2" d="M53.9,191.3v-66.9L2.5,100.5v69l50.7,22C53.4,191.4,53.7,191.3,53.9,191.3z"/>
	</g>
</g>
<g id="Online" class="st3">
	<path class="st4" d="M169.3,34.7H30.7c-3.3,0-5.9,2.7-5.9,5.9v2v81.2c0,3.3,2.7,5.9,5.9,5.9h2h134.6h2c3.3,0,5.9-2.7,5.9-5.9V42.6
		v-2C175.2,37.3,172.6,34.7,169.3,34.7z M167.3,121.8H32.7V42.6h134.6V121.8z"/>
	<path class="st4" d="M175.4,133.7c-1.2-1.1-3.5-2-5.1-2H29.7c-1.6,0-3.9,0.9-5.1,2L1,155.4v4c0,0,0,5.9,5.9,5.9h186.1
		c5.9,0,5.9-5.9,5.9-5.9v-4L175.4,133.7z M74,146.3h52l4,6.5H70L74,146.3z M113.9,157.4c0,1.1-0.9,2-2,2H88.1c-1.1,0-2-0.9-2-2v-2
		h27.7L113.9,157.4L113.9,157.4z"/>
	<path class="st4" d="M107.7,107.3c-0.1-0.4-0.6-0.7-1-0.7h-4.4l-1.4-4.2c-0.1-0.4-0.6-0.7-1-0.7c-0.5,0-0.9,0.3-1,0.7l-1.4,4.2
		h-4.4c-0.5,0-0.9,0.3-1,0.7c-0.1,0.4,0,0.9,0.4,1.2l3.6,2.6l-1.4,4.2c-0.1,0.4,0,0.9,0.4,1.2c0.2,0.1,0.4,0.2,0.6,0.2
		c0.2,0,0.4-0.1,0.6-0.2l3.6-2.6l3.6,2.6c0.4,0.3,0.9,0.3,1.3,0c0.4-0.3,0.5-0.7,0.4-1.2l-1.4-4.2l3.6-2.6
		C107.7,108.2,107.8,107.8,107.7,107.3z"/>
	<path class="st4" d="M100,85.3c-6.4,0-12.4,2.2-16.5,6c-1.9,1.8-2.6,4-1.9,5.8c0.6,1.5,2.1,2.6,3.6,2.6c0.7,0,1.4-0.2,1.9-0.7
		c3.6-3.3,8.1-5.2,12.8-5.2l0.1,0c0,0,0.1,0,0.1,0c4.6,0,9.2,1.8,12.8,5.2c0.5,0.5,1.2,0.7,1.9,0.7c1.5,0,3-1.1,3.6-2.6
		c0.7-1.8,0-4-1.9-5.8C112.3,87.5,106.3,85.3,100,85.3z"/>
	<path class="st4" d="M126.9,77.3L126.9,77.3c-0.1-0.1-0.1-0.1-0.2-0.2c-0.2-0.1-0.3-0.3-0.5-0.4l0,0c-7.9-6.6-16.9-10.2-26-10.2
		c-0.1,0-0.4,0-0.6,0c-9.3,0-18.4,3.6-26.4,10.5c-3.6,3.2-3.2,5.7-2.9,6.6c0.6,1.5,2.1,2.4,3.9,2.4c1.8,0,3.6-0.9,5.1-2.4
		c5.5-5.2,12.7-8.1,20.4-8.1h0.2c7.7,0,14.9,2.9,20.4,8.1c1.5,1.6,3.4,2.4,5.2,2.4c1.8,0,3.4-1,3.9-2.4
		C129.9,82.9,130.3,80.4,126.9,77.3z"/>
	<path class="st4" d="M139.9,62.8L139.9,62.8c-0.3-0.3-0.4-0.4-0.6-0.5l0,0c-10.4-9.5-23.9-14.8-38.2-14.8c-0.7,0-1.5,0-2.3,0
		c-14.5,0-28.2,5.4-38.6,15.2c-1.6,1.5-2.1,3.4-1.5,5c0.6,1.6,2.3,2.6,4.3,2.6c1.5,0,3.1-0.6,4.6-1.7l0,0c8.6-7.8,19.6-12.2,31-12.2
		h2.7c11.4,0,22.4,4.3,31,12.2l0,0c1.5,1.1,3.1,1.6,4.6,1.6c2,0,3.7-1,4.3-2.6C141.9,66.2,141.4,64.4,139.9,62.8L139.9,62.8z"/>
</g>
</svg>
