<?xml version="1.0" encoding="utf-8"?>
<!-- Generator: Adobe Illustrator 23.0.4, SVG Export Plug-In . SVG Version: 6.00 Build 0)  -->
<svg version="1.1" id="Layer_1" xmlns="http://www.w3.org/2000/svg" xmlns:xlink="http://www.w3.org/1999/xlink" x="0px" y="0px"
	 viewBox="0 0 250 250" style="enable-background:new 0 0 250 250;" xml:space="preserve">
<style type="text/css">
	.st0{display:none;fill:#FFE36A;}
	.st1{fill:#FFE36A;}
</style>
<path id="path4180" class="st0" d="M156.4,0c-34,0-57.3,20.7-57.3,58.9v32.8H60.6v44.5h38.5v114.3h46V136.3h38.4l5.8-44.5h-44.1
	V63.3c0-12.9,3.6-21.7,22.1-21.7h23.6V1.8C186.7,1.2,172.7,0,156.4,0L156.4,0z"/>
<path id="path22" class="st0" d="M250,47.6c-9.2,4.1-19.1,6.8-29.4,8.1c10.6-6.3,18.7-16.4,22.5-28.3c-9.9,5.9-20.9,10.1-32.5,12.4
	c-9.3-10-22.6-16.2-37.4-16.2c-28.3,0-51.2,22.9-51.2,51.2c0,4,0.4,7.9,1.3,11.7C80.8,84.3,43,63.9,17.8,33
	c-4.4,7.6-6.9,16.4-6.9,25.7c0,17.8,9,33.4,22.8,42.6c-8.4-0.3-16.3-2.6-23.2-6.4c0,0.2,0,0.4,0,0.6c0,24.8,17.7,45.5,41.1,50.2
	c-4.3,1.2-8.8,1.8-13.5,1.8c-3.3,0-6.5-0.3-9.6-0.9c6.5,20.3,25.4,35.2,47.8,35.6c-17.5,13.7-39.6,21.9-63.6,21.9
	c-4.1,0-8.2-0.2-12.2-0.7c22.7,14.5,49.6,23,78.5,23c94.2,0,145.7-78,145.7-145.7c0-2.2-0.1-4.4-0.1-6.6
	C234.4,66.9,243.1,57.9,250,47.6"/>
<path id="rect3687" class="st1" d="M72.2,0.5C32.3,0.5-0.2,33-0.2,72.9v104.7c0,39.9,32.5,72.4,72.4,72.4h105.4
	c39.9,0,72.4-32.5,72.4-72.4V72.9c0-39.9-32.5-72.4-72.4-72.4H72.2z M72.2,21.9h105.4c28.4,0,51,22.6,51,51v104.7
	c0,28.4-22.6,51-51,51H72.2c-28.4,0-51-22.5-51-51V72.9C21.2,44.5,43.8,21.9,72.2,21.9z M192,43.4c-8.3,0-15,6.7-15,15
	c0,8.3,6.7,15,15,15c8.3,0,15-6.7,15-15C207,50.1,200.3,43.4,192,43.4z M124.9,61c-35.4,0-64.3,28.9-64.3,64.3
	c0,35.4,28.9,64.3,64.3,64.3s64.3-28.9,64.3-64.3S160.3,61,124.9,61z M124.9,82.4c23.8,0,42.8,19,42.8,42.8
	c0,23.8-19.1,42.8-42.8,42.8c-23.8,0-42.8-19-42.8-42.8C82.1,101.5,101.1,82.4,124.9,82.4z"/>
</svg>
