<?xml version="1.0" encoding="utf-8"?>
<!-- Generator: Adobe Illustrator 23.0.4, SVG Export Plug-In . SVG Version: 6.00 Build 0)  -->
<svg version="1.1" id="Layer_1" xmlns="http://www.w3.org/2000/svg" xmlns:xlink="http://www.w3.org/1999/xlink" x="0px" y="0px"
	 viewBox="0 0 250 250" style="enable-background:new 0 0 250 250;" xml:space="preserve">
<style type="text/css">
	.st0{fill:#FFE36A;}
	.st1{filter:url(#Adobe_OpacityMaskFilter);}
	.st2{mask:url(#SVGID_1_);}
	.st3{filter:url(#Adobe_OpacityMaskFilter_1_);}
	.st4{fill:#215540;}
	.st5{display:none;}
	.st6{display:inline;fill:#FFE36A;}
</style>
<g id="d20">
	<path class="st0" d="M124.9,49.4C103.4,87.3,82.3,124.2,60.8,162c43.1,0,85,0,128.3,0C167.6,124.3,146.5,87.4,124.9,49.4z"/>
	<defs>
		<filter id="Adobe_OpacityMaskFilter" filterUnits="userSpaceOnUse" x="91.8" y="93.5" width="67.4" height="70.5">
			<feFlood  style="flood-color:white;flood-opacity:1" result="back"/>
			<feBlend  in="SourceGraphic" in2="back" mode="normal"/>
		</filter>
	</defs>
	<mask maskUnits="userSpaceOnUse" x="91.8" y="93.5" width="67.4" height="70.5" id="SVGID_1_">
		<g class="st1">
		</g>
	</mask>
	<g class="st2">
		<defs>
			<filter id="Adobe_OpacityMaskFilter_1_" filterUnits="userSpaceOnUse" x="94.4" y="105" width="61.9" height="43.2">
				<feFlood  style="flood-color:white;flood-opacity:1" result="back"/>
				<feBlend  in="SourceGraphic" in2="back" mode="normal"/>
			</filter>
		</defs>
		<mask maskUnits="userSpaceOnUse" x="94.4" y="105" width="61.9" height="43.2" id="SVGID_1_">
			<g class="st3">
			</g>
		</mask>
		<g>
			<path class="st4" d="M94.5,147.4v-0.5c0-6.8,3.5-12.8,12.4-19.4c6.2-4.6,7.9-6.1,7.9-10.1c0-3.8-1.9-6.2-5.9-6.2
				c-4.4,0-6.2,2.5-6.9,6.7h-7.6c0.6-7.1,5.3-12.9,14.5-12.9c10.2,0,13.9,6.2,13.9,12.4c0,6.1-2.6,8.9-10.3,14.5
				c-5.3,3.9-7.7,6.6-8.6,8.9h20.5l-1,6.7H94.5z"/>
			<path class="st4" d="M156.3,126.3c0,11.1-3.4,21.9-15.5,21.9c-11.9,0-15.5-10.3-15.5-21.6c0-11.2,3.9-21.6,15.7-21.6
				C152.4,105,156.3,114.9,156.3,126.3z M133.4,126.5c0,7.7,1,15.3,7.4,15.3c6.3,0,7.2-7.1,7.2-15.4c0-8.1-1.1-15-7.1-15
				C135,111.3,133.4,117.4,133.4,126.5z"/>
		</g>
	</g>
	<path class="st0" d="M198,155c-21-36.9-41.3-72.5-62.3-109.3c33.6,5.8,65.7,11.4,98.8,17.1C222.4,93.4,210.5,123.4,198,155z"/>
	<path class="st0" d="M114.1,45.7c-21,36.9-41.3,72.5-62.3,109.3c-12.4-31.2-24.2-61.2-36.5-92.2C48.1,57.1,80.5,51.5,114.1,45.7z"
		/>
	<path class="st0" d="M186.6,174.1c-20.9,25.7-41,50.5-61.7,75.9c-20.6-25.4-40.9-50.3-61.7-75.9C104.5,174.1,145,174.1,186.6,174.1
		z"/>
	<path class="st0" d="M236.4,91c0,30.7,0,60.9,0,92c-2.4-1.3-4.1-2.2-5.9-3.2c-7.1-4.1-14.3-8.1-21.2-12.4c-1.3-0.8-2.7-3.5-2.2-4.6
		c9.1-23.5,18.5-47,27.8-70.5C235.1,92,235.6,91.7,236.4,91z"/>
	<path class="st0" d="M150.2,236.7c12.2-14.9,24.3-29.9,36.5-44.8c3.7-4.6,7.3-9.3,11.2-13.8c0.9-1,3.3-2.2,4.1-1.7
		c9.4,5.2,18.6,10.7,28.9,16.6c-27.2,15.3-53.5,30-79.7,44.7C150.9,237.4,150.5,237.1,150.2,236.7z"/>
	<path class="st0" d="M18.9,193c10-5.8,19-11.1,28.1-16.2c1-0.6,3.6-0.2,4.3,0.6c15.9,19.4,31.7,38.9,47.5,58.4
		c0.3,0.3,0.2,0.9,0.6,2.3C72.4,223,46.1,208.2,18.9,193z"/>
	<path class="st0" d="M13.6,183.1c0-31.4,0-61.4,0-91.5c0.3-0.1,0.6-0.2,0.9-0.3c1.9,4.9,3.9,9.8,5.8,14.7
		c7.3,18.3,14.4,36.6,21.8,54.8c1.5,3.6,1,5.4-2.6,7.4C31,172.7,22.7,177.8,13.6,183.1z"/>
	<path class="st0" d="M119.4,0c0,11.2,0.1,20.9-0.1,30.7c0,1-1.5,2.8-2.6,3c-25.1,4.5-50.2,8.8-75.3,13.2c-0.2-0.4-0.4-0.8-0.6-1.3
		C66.6,30.6,92.4,15.7,119.4,0z"/>
	<path class="st0" d="M208.8,46.9C183,42.4,157.2,38,131,33.5c0-10.9,0-21.5,0-33.1c26.4,15.3,52.2,30.3,78.1,45.2
		C209,46,208.9,46.4,208.8,46.9z"/>
</g>
<g id="d8" class="st5">
	<path class="st6" d="M119.5,179.9c-40.3-19-80-37.7-119.4-56.3C40.1,83.7,79.8,44,119.5,4.4C119.5,62.1,119.5,120.5,119.5,179.9z"
		/>
	<path class="st6" d="M249.9,123.9c-38.7,18.2-78.3,36.9-118.7,56c0-59.1,0-117.5,0-175C170.5,44.3,210.1,84,249.9,123.9z"/>
	<path class="st6" d="M119.7,245.6c-33.8-33.8-67.1-67.1-101.3-101.3c3,1.3,5.4,2.3,7.6,3.4c29.8,14,59.5,28.2,89.4,42.1
		c3.6,1.7,5,3.5,4.9,7.5c-0.2,14-0.1,28.1-0.1,42.2C120.1,241.4,119.8,243.5,119.7,245.6z"/>
	<path class="st6" d="M131,244.7c-0.1-0.8-0.4-2.4-0.4-4c0-14.7,0-29.4-0.1-44.1c0-3,0.7-5,3.7-6.3c31.9-14.9,63.8-30,95.7-45
		c0.5-0.3,1.2-0.3,1.3-0.3C198,178.1,164.5,211.4,131,244.7z"/>
</g>
<g id="d4" class="st5">
	<path class="st6" d="M250,157.2c-39.8,30.9-79,61.3-119,92.4c0-83.1,0-165.3,0-249.1C171.1,53.3,210.4,105,250,157.2z"/>
	<path class="st6" d="M118.8,249.5c-39.8-31-79-61.4-118.8-92.3c39.5-52,78.8-103.8,118.8-156.6C118.8,84.1,118.8,166.2,118.8,249.5
		z"/>
</g>
<g id="d12" class="st5">
	<path class="st6" d="M192.4,159.8c-11.4-7-22.8-14-34.2-21c-8.1-5-16.3-9.7-24.2-15c-1.7-1.1-3.4-3.9-3.4-5.9
		c-0.2-22.2-0.1-44.4-0.2-66.6c0-3.4,1.2-4.7,4.4-5.4c22.2-5.3,44.4-10.7,66.6-16.2c3.2-0.8,4.8,0.1,6.4,2.9
		c12.5,21.3,25.1,42.6,37.8,63.8c1.6,2.6,2.5,4.6-0.2,7.5c-17.1,17.9-33.9,36-50.8,54.1C194,158.6,193.3,159,192.4,159.8z"/>
	<path class="st6" d="M119.3,84.9c0,11,0.2,22-0.1,33c-0.1,2-1.5,4.9-3.2,5.9c-18.2,11.4-36.7,22.5-54.9,33.9
		c-2.9,1.8-4.5,1.5-6.7-0.9C38,139.2,21.6,121.6,5,104.2c-2.4-2.5-2.6-4.4-0.8-7.4c12.8-21.4,25.6-43,38.2-64.6
		c1.6-2.7,3.2-3.2,6.2-2.5c21.8,5.4,43.7,10.8,65.6,15.9c4.1,0.9,5.4,2.6,5.2,6.8C119.1,63.2,119.3,74.1,119.3,84.9z"/>
	<path class="st6" d="M124.8,245.8c-11.5,0-23-0.2-34.6,0.1c-3.6,0.1-4.9-1.2-5.9-4.5c-6.6-22.6-13.3-45.1-20.2-67.6
		c-0.9-2.9-0.6-4.5,2.2-6.1c18.7-11.3,37.2-22.8,56-34.1c1.4-0.9,4.3-0.7,5.8,0.2c18.7,11.2,37.4,22.6,55.9,34.2
		c1.3,0.8,2.4,3.7,2,5.2c-6.7,23.1-13.7,46-20.5,69.1c-1,3.3-2.8,3.7-5.6,3.6C148.2,245.8,136.5,245.8,124.8,245.8z"/>
	<path class="st6" d="M71.6,239c-10.4-6.2-19.7-11.6-28.9-17.3c-1.2-0.7-2-2.3-2.7-3.6c-12.7-22-25.3-44-38-66
		c-0.6-1-1.5-2.1-1.5-3.2c-0.1-10.4-0.1-20.8-0.1-32.4c2,1.8,3.1,2.7,4.1,3.8C19.1,135.7,33.6,151,48,166.6c2.1,2.3,3.8,5.2,4.7,8.2
		c6,19.6,11.8,39.2,17.6,58.8C70.7,234.8,70.9,236.1,71.6,239z"/>
	<path class="st6" d="M249.5,116.7c0,11.2,0.1,21.5-0.1,31.8c0,1.4-1,2.8-1.7,4.1c-12.4,21.6-24.7,43.2-37.3,64.6
		c-1.5,2.5-3.8,4.8-6.2,6.3c-8.1,5.1-16.4,9.8-26,15.5c2.3-7.6,4-13.7,5.8-19.8c4.5-15.1,8.9-30.1,13.5-45.2c0.6-2,1.5-4.3,2.9-5.8
		c15.6-16.7,31.2-33.3,46.9-50C247.7,118,248.1,117.7,249.5,116.7z"/>
	<path class="st6" d="M192.1,20.4c-8.5,2.1-15.5,3.8-22.5,5.5c-13.8,3.4-27.6,6.7-41.4,10c-1.6,0.4-3.4,0.8-5,0.4
		c-20.9-5-41.8-10.1-62.6-15.3c-0.3-0.1-0.5-0.4-1.4-1.3c3.9-2,7.7-3.6,11-5.9C81.9,6,94.6,3.3,108.7,4.1
		c15.9,0.9,31.9,0.1,47.8,0.3c3.2,0,6.7,1,9.6,2.4C174.4,11,182.5,15.4,192.1,20.4z"/>
</g>
<g id="d6" class="st5">
	<path class="st6" d="M229,62.1c-8.2,4.8-15.8,9.2-23.5,13.6c-25.9,14.9-51.8,29.7-77.8,44.4c-1.7,0.9-4.7,1-6.3,0.1
		c-33.2-18.9-66.4-37.9-99.5-57c-0.4-0.2-0.7-0.6-1.6-1.3c1.5-1,2.8-2,4.2-2.8c31.9-18.9,63.9-37.8,95.8-56.9c2.9-1.7,5-2,8.1-0.1
		c31.9,19,63.9,37.9,95.8,56.8C225.7,59.8,227,60.8,229,62.1z"/>
	<path class="st6" d="M118.9,249.5c-11-6.3-21.4-12.2-31.8-18.2c-22.9-13.1-45.7-26.3-68.7-39.4c-2.6-1.5-3.9-3.1-3.9-6.2
		c0.1-36.5,0-73,0.1-109.6c0-1.2,0.2-2.4,0.4-4.2c1.5,0.6,2.6,0.9,3.6,1.5c32.5,18.6,65,37.2,97.4,56c1.5,0.9,3.2,3.3,3.2,5
		c0.1,37.5,0.1,74.9,0,112.4C119.2,247.4,119.1,248,118.9,249.5z"/>
	<path class="st6" d="M234.1,71.5c0.1,2.4,0.3,4,0.3,5.5c0,36.1,0,72.1,0.1,108.2c0,3-0.8,4.9-3.5,6.4
		c-32.1,18.3-64.2,36.8-96.3,55.2c-1.3,0.8-2.7,1.3-4.6,2.3c-0.1-2.1-0.2-3.6-0.2-5.1c0-35.9,0-71.8-0.1-107.7
		c0-3.8,1.1-5.9,4.5-7.8c31.9-18.1,63.6-36.4,95.4-54.7C230.8,73.1,232.1,72.5,234.1,71.5z"/>
</g>
</svg>
